<?xml version="1.0" standalone="no"?>
<!DOCTYPE svg PUBLIC "-//W3C//DTD SVG 20010904//EN"
 "http://www.w3.org/TR/2001/REC-SVG-20010904/DTD/svg10.dtd">
<svg version="1.0" xmlns="http://www.w3.org/2000/svg"
 width="310.000000pt" height="310.000000pt" viewBox="0 0 310.000000 310.000000"
 preserveAspectRatio="xMidYMid meet">
<metadata>
Created by potrace 1.11, written by Peter Selinger 2001-2013
</metadata>
<g transform="translate(0.000000,310.000000) scale(0.100000,-0.100000)"
fill="#000000" stroke="none">
<path d="M438 2594 c-2 -2 -22 -6 -43 -8 -26 -3 -46 -13 -57 -28 -49 -66 -63
-80 -97 -97 -42 -22 -78 -59 -146 -151 -27 -36 -54 -68 -60 -73 -33 -24 277
-174 398 -192 56 -9 70 -27 53 -70 -12 -27 -10 -33 12 -62 30 -40 26 -78 -20
-216 -17 -51 -31 -98 -31 -104 0 -7 -3 -13 -7 -13 -13 0 -6 -30 11 -46 16 -14
18 -14 30 8 17 33 17 33 38 7 22 -27 33 -21 36 18 1 22 11 33 45 52 30 17 45
21 48 13 2 -7 8 -10 12 -7 5 3 7 12 3 20 -4 11 2 15 21 15 16 0 41 15 70 44
42 40 114 82 158 92 10 2 27 6 37 8 11 3 37 -4 58 -15 54 -28 92 -26 159 7 61
31 58 31 169 10 75 -14 91 -20 117 -48 25 -27 31 -29 80 -24 29 3 64 8 78 11
14 3 38 8 54 11 16 2 33 7 37 10 8 4 41 -39 52 -67 3 -10 22 -19 46 -23 34 -5
42 -11 47 -34 10 -48 13 -51 51 -69 25 -12 47 -35 69 -71 17 -30 41 -64 53
-78 11 -13 21 -28 21 -33 0 -17 -52 -60 -82 -66 -33 -8 -64 -62 -53 -96 7 -20
30 -26 40 -9 3 6 26 10 51 10 38 0 54 8 117 54 129 97 143 111 128 130 -17 20
-4 137 16 144 55 18 91 69 63 87 -16 10 -1 25 25 25 13 0 28 7 33 15 4 9 22
17 38 19 21 3 29 9 27 22 -2 24 24 42 73 49 101 16 101 16 203 -60 88 -66 170
-144 172 -163 4 -61 17 -111 46 -177 70 -161 80 -230 48 -342 -35 -121 -109
-229 -194 -282 -38 -23 -139 -66 -176 -76 -5 -1 -17 -5 -25 -8 -8 -3 -44 -16
-79 -28 -254 -90 -330 -292 -152 -405 70 -45 91 -51 166 -48 39 1 76 -3 83 -8
18 -15 149 -15 163 -1 20 20 -34 35 -136 39 -199 8 -243 20 -284 79 -45 66
-32 149 35 224 40 46 85 66 211 97 213 51 356 156 438 319 36 72 39 91 32 212
-2 40 -1 91 3 113 7 37 1 53 -62 181 -88 179 -92 206 -37 305 21 39 39 85 39
102 0 17 -13 59 -30 94 -16 34 -30 73 -30 85 0 14 -11 29 -27 40 -16 9 -44 32
-64 50 -21 21 -50 36 -70 39 -26 4 -51 22 -106 79 -84 88 -125 115 -173 115
-38 0 -55 9 -119 57 -50 37 -300 123 -501 171 -14 3 -74 6 -135 6 -93 -1 -131
-7 -249 -38 -90 -23 -172 -38 -235 -42 -53 -3 -116 -7 -141 -9 -25 -1 -132 -3
-238 -4 l-193 -2 -97 50 c-87 43 -153 66 -164 55z"/>
</g>
</svg>
